<svg fill="none" height="16" viewBox="0 0 16 16" width="16" xmlns="http://www.w3.org/2000/svg" xmlns:xlink="http://www.w3.org/1999/xlink"><clipPath id="a"><path d="m0 0h16v16h-16z"/></clipPath><g clip-path="url(#a)" stroke="#fff" stroke-linecap="round" stroke-linejoin="round" stroke-width="2"><path d="m13.3346 14.6667c.3682 0 .6667-.2985.6667-.6667s-.2985-.6667-.6667-.6667-.6666.2985-.6666.6667.2984.6667.6666.6667z"/><path d="m5.9987 14.6667c.36819 0 .66666-.2985.66666-.6667s-.29847-.6667-.66666-.6667-.66667.2985-.66667.6667.29848.6667.66667.6667z"/><path d="m.667969.666656h2.666671l1.78666 8.926664c.06096.30693.22794.58268.4717.77888s.54877.3005.86164.2945h6.47996c.3129.006.6179-.0983.8617-.2945.2437-.1962.4107-.47195.4717-.77888l1.0666-5.59333h-11.3333"/></g></svg>