<?xml version="1.0" encoding="UTF-8"?>
<svg version="1.1" xmlns="http://www.w3.org/2000/svg" width="120" height="120">
<path d="M0 0 C39.6 0 79.2 0 120 0 C120 39.6 120 79.2 120 120 C80.4 120 40.8 120 0 120 C0 80.4 0 40.8 0 0 Z " fill="#000000" transform="translate(0,0)"/>
<path d="M0 0 C1.92869568 -0.38095093 1.92869568 -0.38095093 4.31030273 -0.38818359 C5.20140244 -0.39764008 6.09250214 -0.40709656 7.01060486 -0.4168396 C7.97519119 -0.41076691 8.93977753 -0.40469421 9.93359375 -0.3984375 C10.92247086 -0.40130768 11.91134796 -0.40417786 12.93019104 -0.40713501 C15.02418591 -0.40917897 17.11819972 -0.40362602 19.2121582 -0.39111328 C22.42116985 -0.37508158 25.62891866 -0.39094232 28.83789062 -0.41015625 C30.86979445 -0.40817354 32.9016975 -0.4043293 34.93359375 -0.3984375 C35.89615585 -0.40451019 36.85871796 -0.41058289 37.85044861 -0.4168396 C39.1918264 -0.40265488 39.1918264 -0.40265488 40.56030273 -0.38818359 C41.34702866 -0.38579681 42.13375458 -0.38341003 42.94432068 -0.38095093 C45.55292221 0.10246551 46.4362265 0.88142556 48 3 C48.29818578 5.62253458 48.42058924 8.00293966 48.3984375 10.625 C48.40130768 11.36830566 48.40417786 12.11161133 48.40713501 12.87744141 C48.40917476 14.4475989 48.403651 16.01778186 48.39111328 17.58789062 C48.37505703 19.99146332 48.39096352 22.39335461 48.41015625 24.796875 C48.4081738 26.32292038 48.40433009 27.84896471 48.3984375 29.375 C48.40754654 30.45322021 48.40754654 30.45322021 48.4168396 31.55322266 C48.34663907 36.53290017 48.34663907 36.53290017 46.74649048 38.68911743 C44.56226614 40.32855472 43.38097926 40.37972951 40.66796875 40.38818359 C39.79696533 40.39764008 38.92596191 40.40709656 38.02856445 40.4168396 C37.09101318 40.41076691 36.15346191 40.40469421 35.1875 40.3984375 C33.73960083 40.40274277 33.73960083 40.40274277 32.26245117 40.40713501 C30.22151096 40.40917661 28.18055123 40.40364007 26.13964844 40.39111328 C23.0119256 40.3750612 19.88549504 40.39095895 16.7578125 40.41015625 C14.77603881 40.40817384 12.79426592 40.4043302 10.8125 40.3984375 C9.87494873 40.40451019 8.93739746 40.41058289 7.97143555 40.4168396 C6.66493042 40.40265488 6.66493042 40.40265488 5.33203125 40.38818359 C4.56608643 40.38579681 3.8001416 40.38341003 3.01098633 40.38095093 C0.43431776 39.89284006 -0.44981532 39.09054448 -2 37 C-2.2860605 34.37687215 -2.39686538 31.99621484 -2.36328125 29.375 C-2.36377975 28.63169434 -2.36427826 27.88838867 -2.36479187 27.12255859 C-2.36245333 25.55238163 -2.35273768 23.98220079 -2.33618164 22.41210938 C-2.31258614 20.00877358 -2.31562226 17.60654721 -2.32226562 15.203125 C-2.31668872 13.67707672 -2.30957877 12.15103311 -2.30078125 10.625 C-2.30169266 9.90618652 -2.30260406 9.18737305 -2.30354309 8.44677734 C-2.2510669 4.7538727 -2.10334783 3.15502174 0 0 Z " fill="#1B1B1B" transform="translate(38,41)"/>
<path d="M0 0 C13.86 0 27.72 0 42 0 C42 7.59 42 15.18 42 23 C39.36 21.02 36.72 19.04 34 17 C31.04491137 16.65629795 31.04491137 16.65629795 29.61328125 18.3125 C28.96939453 19.1478125 28.96939453 19.1478125 28.3125 20 C27.549375 20.99 26.78625 21.98 26 23 C24.8944811 22.06409496 23.79064547 21.12620142 22.6875 20.1875 C22.07261719 19.66542969 21.45773438 19.14335938 20.82421875 18.60546875 C19 17 19 17 17.51953125 15.23828125 C17.01808594 14.82964844 16.51664063 14.42101563 16 14 C13.50730236 14.27415242 12.31301039 14.6778067 10.55200195 16.49047852 C10.11847412 17.11365967 9.68494629 17.73684082 9.23828125 18.37890625 C8.75939453 19.05244141 8.28050781 19.72597656 7.78710938 20.41992188 C7.05717773 21.48049805 7.05717773 21.48049805 6.3125 22.5625 C5.33206635 23.96148877 4.34913385 25.35873086 3.36328125 26.75390625 C2.93313721 27.37595947 2.50299316 27.9980127 2.05981445 28.63891602 C1.71007568 29.08807373 1.36033691 29.53723145 1 30 C0.67 30 0.34 30 0 30 C0 20.1 0 10.2 0 0 Z " fill="#000000" transform="translate(40,44)"/>
<path d="M0 0 C0.66 0 1.32 0 2 0 C3.515625 1.57421875 3.515625 1.57421875 5.25 3.6875 C8.25954469 7.23964603 11.33524535 10.13970369 15 13 C14.7525 12.278125 14.505 11.55625 14.25 10.8125 C14 8 14 8 15.9375 5.1875 C16.618125 4.465625 17.29875 3.74375 18 3 C20.86268069 4.10103103 22.99897825 5.71234524 25.25 7.75 C26.03117187 8.45382813 26.03117187 8.45382813 26.828125 9.171875 C28 11 28 11 28 17 C14.8 17 1.6 17 -12 17 C-10.02486011 13.04972022 -7.67560387 9.72828504 -5 6.25 C-4.54882812 5.64800781 -4.09765625 5.04601562 -3.6328125 4.42578125 C-2.47177498 2.91093644 -1.24072061 1.45030179 0 0 Z " fill="#010101" transform="translate(54,61)"/>
<path d="M0 0 C2.5625 0.1875 2.5625 0.1875 4.5625 2.1875 C4.1875 5.3125 4.1875 5.3125 3.5625 8.1875 C1.25 8.875 1.25 8.875 -1.4375 9.1875 C-3.3125 8.0625 -3.3125 8.0625 -4.4375 6.1875 C-3.87661439 0.29820111 -3.87661439 0.29820111 0 0 Z " fill="#1A1A1A" transform="translate(73.4375,46.8125)"/>
</svg>
