<!DOCTYPE svg PUBLIC "-//W3C//DTD SVG 1.1//EN" "http://www.w3.org/Graphics/SVG/1.1/DTD/svg11.dtd">
<!-- Uploaded to: SVG Repo, www.svgrepo.com, Transformed by: SVG Repo Mixer Tools -->
<svg fill="#ffffff" width="800px" height="800px" viewBox="0 0 32 32" version="1.1" xmlns="http://www.w3.org/2000/svg" stroke="#ffffff">
<g id="SVGRepo_bgCarrier" stroke-width="0"/>
<g id="SVGRepo_tracerCarrier" stroke-linecap="round" stroke-linejoin="round"/>
<g id="SVGRepo_iconCarrier"> <path d="M24 0h-11c-1.104 0-2 0.895-2 2h11v8h8v16h-7v2h7c1.105 0 2-0.895 2-2v-18zM24 8v-5.172l5.171 5.172h-5.171zM2 4c-1.105 0-2 0.896-2 2v24c0 1.105 0.895 2 2 2h17c1.105 0 2-0.895 2-2v-18l-8-8.001h-11zM19 30h-17v-24h9v8h8v16zM13 12v-5.172l5.171 5.172h-5.171z"/> </g>
</svg>